<svg xmlns="http://www.w3.org/2000/svg" width="179" height="147"><path fill="#fff" d="M1.881 145.322V23.709h175.724v105.942c-.005 8.65-7.012 15.662-15.661 15.67z"/><path fill="#aac1ce" d="M179 129.651v.009c0 9.42-7.637 17.056-17.056 17.056H.487V22.315H179zm-2.79-104.547H3.277v118.823h158.668c7.88-.008 14.261-6.396 14.267-14.276V25.104"/><path fill="#25b6d2" d="M11.616 0H167.87C174.018 0 179 4.982 179 11.13v11.229H.487V11.14C.48 4.99 5.46.005 11.607 0h.009z"/><path fill="#fff" d="M12.782 11.185a3.113 3.113 0 116.225 0 3.113 3.113 0 01-6.225 0zm9.335 0a3.113 3.113 0 116.226 0 3.113 3.113 0 01-6.226 0zm9.333 0a3.113 3.113 0 116.226 0 3.113 3.113 0 01-6.226 0z" opacity=".7"/><path fill="#fff" d="M161.193 16.652H50.375l5.579-10.93h105.24z"/><path fill="#415e72" d="M60.428 8.999l.457 1.986c.098.465.196.942.28 1.42h.016c.09-.478.234-.963.36-1.412l.558-1.994h.898l.558 1.952c.134.51.25.988.348 1.462h.02c.07-.477.173-.954.279-1.462L64.687 9h1.085L64.4 13.372h-1.024l-.521-1.78a13.886 13.886 0 01-.332-1.394h-.02c-.08.471-.192.937-.332 1.395l-.558 1.78h-1.032l-1.294-4.374zm7.096 0l.457 1.986c.098.465.196.942.28 1.42h.005c.086-.478.231-.963.357-1.412l.558-1.994h.898l.558 1.952c.134.51.25.988.348 1.462h.02c.07-.477.173-.954.279-1.462L71.769 9h1.088l-1.375 4.373h-1.024l-.521-1.78a13.888 13.888 0 01-.332-1.394c-.081.471-.193.937-.332 1.395l-.558 1.78h-1.032L66.389 9zm7.096 0l.457 1.986c.098.465.196.942.28 1.42h.016c.09-.478.234-.963.36-1.412l.558-1.994h.9l.558 1.952c.134.51.251.988.35 1.462h.019c.07-.477.173-.954.279-1.462L78.882 9h1.099l-1.395 4.373h-1.023l-.522-1.78a13.891 13.891 0 01-.332-1.394h-.02c-.08.471-.192.937-.331 1.395l-.558 1.78h-1.032L73.473 9zm5.757 3.765a.678.678 0 01.639-.711h.044a.713.713 0 01.667.753.715.715 0 01-.667.667.673.673 0 01-.683-.661v-.048zm67.531-.884v-1.395h7.517v1.395z"/><path fill="#415e72" d="M153.283 14.993l-.985-.988 2.817-2.822-2.817-2.817.985-.988 3.807 3.805zM37.24 125.066V56.079h105.006v68.987z"/><path fill="#e04f5f" d="M37.24 56.082V43.965h105.006v12.117z"/><path fill="#25b6d2" d="M72.347 114.037V101.92h34.793v12.117z"/><path fill="#fff" d="M56.032 94.456V82.34h67.417v12.116zm0-15.96V66.38h67.417v12.116z"/><path fill="#aec4ce" d="M61.452 88.393a1.615 1.615 0 113.23 0 1.615 1.615 0 01-3.23 0zm5.854 0a1.615 1.615 0 113.23 0 1.615 1.615 0 01-3.23 0zm5.858 0a1.615 1.615 0 113.23 0 1.615 1.615 0 01-3.23 0zm5.855 0a1.615 1.615 0 113.23 0 1.615 1.615 0 01-3.23 0zm5.857 0a1.615 1.615 0 113.23 0 1.615 1.615 0 01-3.23 0zm5.854 0a1.615 1.615 0 113.23 0 1.615 1.615 0 01-3.23 0z"/><path fill="#fff" d="M79.922 109.53c.321.192.69.295 1.063.298.605 0 .96-.318.96-.78 0-.464-.246-.676-.865-.916-.75-.265-1.214-.653-1.214-1.3a1.32 1.32 0 011.384-1.252l.1.008c.352-.01.7.065 1.016.224l-.165.485a1.855 1.855 0 00-.87-.218c-.628 0-.868.374-.868.686 0 .43.28.64.912.885.776.298 1.172.672 1.172 1.347 0 .675-.524 1.322-1.607 1.322a2.38 2.38 0 01-1.171-.279zm6.176-.19c0 .34 0 .639.028.898h-.53l-.037-.538a1.242 1.242 0 01-1.09.616c-.519 0-1.138-.279-1.138-1.445v-1.927h.6v1.838c0 .628.19 1.049.736 1.049a.867.867 0 00.845-.865v-2.022h.6zm1.587-.999c.003-.083.014-.164.036-.245a.947.947 0 01.91-.736c.644 0 .981.563.981 1.224 0 .753-.37 1.264-.998 1.264a.925.925 0 01-.926-.918zm-.126 1.911l.028-.558h.02c.217.41.652.653 1.115.622.04-.003.081-.005.12-.01a1.566 1.566 0 001.356-1.755c.006-.042.008-.084.011-.126a1.478 1.478 0 00-1.406-1.548 1.235 1.235 0 00-1.115.608v-2.07h-.592v4c0 .28-.028.614-.028.837zm3.409-2.402c0-.343 0-.622-.028-.892h.524l.028.53h.02c.2-.382.602-.62 1.034-.608a.973.973 0 01.935.66c.092-.166.217-.312.368-.426.21-.162.466-.245.73-.234.436 0 1.083.279 1.083 1.434v1.952h-.586V108.4c0-.636-.231-1.015-.714-1.015a.773.773 0 00-.708.558 1 1 0 00-.05.298v2.036h-.586v-1.975c0-.524-.232-.906-.686-.906a.819.819 0 00-.745.6.807.807 0 00-.047.292v1.99h-.589zm5.687 2.402v-3.297h.6v3.297zm.664-4.223a.35.35 0 01-.332.368h-.05a.356.356 0 01-.36-.354v-.014a.367.367 0 01.354-.376h.023a.355.355 0 01.365.343v.033zm1.651-.022v.948h.856v.458h-.856v1.776c0 .408.115.64.446.64.118.002.235-.012.35-.043l.027.45c-.17.058-.349.086-.53.08a.841.841 0 01-.644-.254 1.208 1.208 0 01-.235-.856v-1.799h-.51v-.457h.516v-.79z"/><path fill="#aec4ce" d="M61.505 74.812V70.22h.647l1.47 2.324c.307.477.583.976.823 1.49a19.95 19.95 0 01-.067-1.886v-1.92h.558v4.592h-.575l-1.456-2.33a14.264 14.264 0 01-.86-1.533h-.019c.034.58.048 1.13.048 1.894v1.952zm6.195-1.105a.558.558 0 01-.037.19.817.817 0 01-.795.558.53.53 0 01-.558-.572c0-.642.743-.745 1.395-.745zm.636 1.107a4.677 4.677 0 01-.056-.789v-1.23c0-.661-.246-1.35-1.253-1.35a2.05 2.05 0 00-1.082.293l.137.396c.26-.16.555-.246.859-.246a.681.681 0 01.75.761v.068c-1.274-.006-1.983.43-1.983 1.224a.938.938 0 001.007.948c.396.009.77-.175 1.007-.49h.022l.048.413zm.914-2.404c0-.343 0-.622-.027-.893h.524l.028.53h.022a1.14 1.14 0 011.035-.608.97.97 0 01.932.661c.092-.167.217-.312.368-.426.209-.162.466-.246.73-.235.436 0 1.083.28 1.083 1.434v1.953h-.586V72.96c0-.636-.231-1.016-.714-1.016a.776.776 0 00-.708.558 1 1 0 00-.05.299v2.036H71.3v-1.975c0-.524-.232-.907-.687-.907a.819.819 0 00-.744.6.871.871 0 00-.048.293v1.989h-.585zm6.02.435a.994.994 0 01.917-.976.856.856 0 01.837.976zm2.306.41a1.88 1.88 0 00.023-.279 1.395 1.395 0 00-1.361-1.554 1.605 1.605 0 00-1.548 1.78 1.528 1.528 0 001.623 1.674c.376.01.75-.059 1.096-.204l-.103-.43a2.081 2.081 0 01-.91.173 1.062 1.062 0 01-1.132-1.144z"/><path fill="#25b6d2" d="M72.347 109.585v-7.667h7.667z"/></svg>