<svg xmlns="http://www.w3.org/2000/svg" width="1287" height="307"><path fill="#a50014" d="M531.933 45.391h-30.11l-54.681 55.371v-55.37h-23.553v136.892h23.553v-63.469l57.217 63.469h31.267l-69.136-73.218zm87.709-.003l51.823 136.892h-25.3l-12.347-33.853h-51.183L570.29 182.28h-25.3l51.822-136.892zm-11.418 29.716l-18.586 52.578h37.184zm76.928 107.18h23.558V66.142h59.854v116.142h23.553V45.39H685.152zm154.681-38.526V45.39h-23.56v136.893h22.18l65.17-99.052v99.052h23.554V45.39h-22.174zm211.881-98.367H943.057v20.756h42.64v116.137h23.554V66.147h42.463zm54.709-.003l51.829 136.892h-25.31l-12.348-33.853h-51.177l-12.342 33.853h-25.31l51.828-136.892zM1095 75.104l-18.593 52.578h37.19zm103.284-29.711v59.281c0 25.89-4.033 56.75-23.248 56.75-1.296 0-2.669-.133-4.082-.394l-3.537-.662v21.467l2.503.412c2.986.49 5.89.74 8.642.74 28.714 0 43.27-25.089 43.27-74.57V66.15h40.971v116.136h23.56V45.393zM443.03 245.796l-13.642-30.25h-5.818v45.434h6.385v-29l10.406 23.064h5.267l10.155-22.936v28.87h6.39v-45.432h-5.834zm26.038 15.184h28.775v-6.04h-22.39v-13.832h19.07v-6.04h-19.07v-13.476h22.39v-6.045h-28.775zm69.904-6.038h5.032v16.718h-6.384v-10.678h-27.135v10.678H504.1v-16.718h4.556c3.358-5.684 4.744-12.258 4.744-22.374V215.55h25.572zm-19.36-19.52c0 7.651-1.29 14.203-3.843 19.52h16.818v-33.347h-12.975v13.826m37.148 13.093V215.55h-6.39v45.433h5.679l20.739-33.07v33.07h6.379V215.55h-5.668zm65.186-32.965h-6.385v39.392h-18.78v-39.392h-6.386v45.431h30.206v10.679h6.378v-16.718h-5.033zm17.131 32.965V215.55h-6.385v45.433h5.673l20.745-33.07v33.07h6.379V215.55h-5.668zm58.478-13.447h-18.782v-19.522h-6.39v45.433h6.39v-19.872h18.782v19.872h6.384v-45.433h-6.384zm30.626-13.833c4.872 0 8.426 3.07 9.522 8.225l.267 1.263h6.467l-.35-1.891c-1.585-8.41-7.675-13.637-15.906-13.637-4.432 0-8.47 1.596-11.368 4.5-4.488 4.499-4.671 8.686-4.671 18.57 0 9.882.183 14.07 4.671 18.569 2.898 2.903 6.936 4.505 11.368 4.505 8.231 0 14.321-5.228 15.906-13.642l.35-1.891h-6.345l-.272 1.262c-1.096 5.15-4.7 8.231-9.639 8.231-2.703 0-5.016-.94-6.863-2.797-2.575-2.575-2.792-5.595-2.792-14.238s.217-11.651 2.792-14.237c1.847-1.852 4.16-2.792 6.863-2.792m56.609-5.685h-8.77l-17.391 17.958v-17.958h-6.385v45.431h6.385v-19.687l18.742 19.687h8.988l-23.175-23.652z"/><path fill="#a50014" d="M800.988 215.194c4.433 0 8.47 1.596 11.368 4.5 4.316 4.32 4.677 8.08 4.677 18.57 0 10.494-.361 14.248-4.677 18.569-2.898 2.903-6.935 4.505-11.368 4.505-4.433 0-8.47-1.602-11.374-4.505-4.31-4.316-4.671-8.075-4.671-18.57 0-10.494.361-14.249 4.671-18.57 2.904-2.903 6.947-4.5 11.374-4.5m0 6.04c-2.703 0-5.016.94-6.874 2.798-2.564 2.575-2.781 5.59-2.781 14.232 0 8.648.217 11.663 2.78 14.238 1.859 1.852 4.172 2.797 6.875 2.797 2.703 0 5.011-.945 6.869-2.802 2.569-2.57 2.78-5.585 2.78-14.233 0-8.643-.211-11.657-2.786-14.237-1.852-1.852-4.16-2.792-6.863-2.792m21.276 39.746h28.775v-6.04h-22.385v-13.832h19.07v-6.04h-19.07v-13.476h22.385v-6.045h-28.775zm76.112-39.746c4.867 0 8.42 3.07 9.516 8.225l.267 1.263h6.463l-.351-1.891c-1.574-8.41-7.658-13.637-15.895-13.637-4.433 0-8.47 1.596-11.373 4.5-4.31 4.32-4.672 8.08-4.672 18.57 0 10.488.361 14.248 4.672 18.569 2.897 2.903 6.94 4.505 11.373 4.505 8.237 0 14.321-5.228 15.895-13.648l.35-1.885h-6.345l-.267 1.262c-1.09 5.15-4.689 8.231-9.633 8.231-2.703 0-5.016-.945-6.874-2.797-2.564-2.575-2.78-5.59-2.78-14.238 0-8.643.216-11.657 2.78-14.237 1.858-1.852 4.171-2.792 6.874-2.792m19.666.359h12.559v39.387h6.378v-39.387h12.62v-6.044h-31.557zm54.804-6.043c8.565 0 14.32 5.528 14.32 13.759 0 8.23-5.755 13.759-14.32 13.759h-10.662v17.914h-6.396V215.55h17.058m-10.662 21.478h10.3c3.788 0 8.298-1.34 8.298-7.72 0-6.379-4.51-7.713-8.298-7.713h-10.3zm118.15-21.834c4.427 0 8.465 1.596 11.368 4.5 4.31 4.32 4.671 8.08 4.671 18.57 0 10.494-.36 14.248-4.671 18.569-2.903 2.903-6.936 4.505-11.368 4.505-4.433 0-8.476-1.602-11.373-4.505-4.316-4.321-4.678-8.075-4.678-18.57 0-10.489.362-14.249 4.678-18.57 2.902-2.903 6.94-4.5 11.373-4.5m0 6.04c-2.703 0-5.017.94-6.874 2.798-2.564 2.575-2.787 5.59-2.787 14.232 0 8.648.223 11.663 2.787 14.238 1.857 1.852 4.165 2.797 6.874 2.797 2.703 0 5.01-.945 6.869-2.802 2.563-2.57 2.78-5.585 2.78-14.233 0-8.643-.217-11.657-2.786-14.237-1.852-1.852-4.166-2.792-6.863-2.792m48.658 16.395c.483.311.928.662 1.418 1.1 2.53 2.331 3.86 5.524 3.86 9.266 0 8.01-5.356 12.987-13.976 12.987h-17.58V215.55h17.112c8.114 0 13.782 5.144 13.782 12.507 0 3.493-1.273 6.54-3.693 8.821-.323.289-.623.528-.923.75m-9.522-2.858c2.898 0 7.759-.856 7.759-6.585 0-5.734-4.86-6.596-7.759-6.596h-10.372v13.181h10.372m.468 20.166c4.972 0 7.936-2.641 7.936-7.063 0-4.421-2.964-7.063-7.936-7.063h-10.84v14.126zm39.709-39.386l16.69 45.432h-6.846l-3.676-10.261h-17.413l-3.67 10.261h-6.847l16.69-45.432zm4.027 29.13l-6.563-18.497-6.562 18.498zm42.872-9.613h-18.782v-19.522h-6.384v45.433h6.384v-19.872h18.782v19.872h6.39v-45.433h-6.39zm19.335 13.447V215.55h-6.384v45.433h5.672l20.745-33.07v33.07h6.385V215.55h-5.673zm61.199-26.921v-6.044h-28.776v45.431h28.776v-6.039h-22.38v-13.837h19.065v-6.04H1264.7v-13.47zm-271.883 39.533l-3.21-9.176h-18.035l-3.21 9.176h-7.307l16.746-45.693h5.584l16.678 45.693zm-12.063-35.36l-7.191 20.278h14.187zm51.243 35.359l-9.95-17.52-9.944 17.52h-7.891l14.048-23.425-13.153-22.269h7.958l8.983 16.368 9.048-16.368h7.959L1048.22 237.7l14.177 23.425z"/><path fill="#002f5c" d="M225.872 86.21h-60.16l102.995 103c4.077 4.07 4.077 10.678 0 14.754l-102.76 102.761h60.164a42.483 42.483 0 0030.022-12.435l84.313-84.32c7.391-7.39 7.391-19.381 0-26.772l-84.553-84.553a42.438 42.438 0 00-30.021-12.435"/><path fill="#a50014" d="M180.323 0h-59.948a42.972 42.972 0 00-30.389 12.586L5.957 96.62c-7.603 7.597-7.603 19.91 0 27.508l83.79 83.796a42.979 42.979 0 0030.389 12.586h59.948L77.017 117.444c-3.904-3.904-3.904-10.233 0-14.138z"/></svg>