<svg xmlns="http://www.w3.org/2000/svg" width="179" height="161"><path fill="#ff5f5f" d="M0 54.74l89.229 52.745L0 160.203z"/><path fill="#ff5f5f" d="M178.458 160.203l-89.23-52.718 89.23-52.745z"/><path fill="#ff8383" d="M0 160.203h178.458l-89.23-52.718z"/><path fill="#efefef" d="M16.15.852V64.14l73.162 43.43 73.052-43.235V.824z"/><path fill="#d84c4c" d="M0 54.74l16.094-12.16v21.672zm178.513 0L162.42 42.58v21.672z"/><path fill="#002833" d="M95.867 45.285c-.948 5.327-5.495 11.687-10.487 11.687-3.766 0-5.663-2.762-5.663-6.527 0-8.312 6.109-15.453 13.668-15.453a15 15 0 014.295.614zm5.16 23.736c-3.514 1.98-8.06 3.013-12.97 3.013-12.69 0-22.063-8.87-22.063-23.207 0-17.433 11.77-28.506 25.773-28.506 13.305 0 20.78 8.925 20.78 21.393 0 9.986-4.909 15.816-9.288 15.732-2.817-.084-3.85-3.096-2.566-9.623l2.928-15.564c-2.23-1.032-5.522-1.813-9.204-1.813-11.938 0-20.362 9.706-20.362 20.361 0 6.778 4.296 10.823 9.288 10.823 5.133 0 9.093-2.483 12.106-7.56h.335c-.251 5.245 2.928 7.56 6.36 7.56 8.06 0 15.284-7.56 15.284-20.446 0-14.336-10.041-24.824-24.992-24.824-19.078 0-31.35 15.285-31.35 32.997 0 16.485 11.937 26.805 26.023 26.805 5.746 0 10.571-.948 15.285-3.43z"/></svg>