<svg xmlns="http://www.w3.org/2000/svg" width="156" height="167"><path fill="none" stroke="#a50014" stroke-linecap="round" stroke-miterlimit="50" stroke-width="8" d="M92.609 51.727c12.985 0 23.526-10.538 23.526-23.537 0-13-10.54-23.537-23.526-23.537-13 0-23.537 10.538-23.537 23.537 0 12.999 10.538 23.537 23.537 23.537zm49.404 3.814l-47.9 4.355L68.58 48.821 35.22 17.714c-3.731-3.484-9.563-3.263-13.03.455-3.484 3.721-3.274 9.553.458 13.033l33.028 30.815L41.89 90.524l-26.029 1.33a9.216 9.216 0 00-8.727 8.558L4.81 132.906c-.359 5.068 3.466 9.484 8.537 9.853 5.012.372 9.505-3.463 9.856-8.548l1.742-24.356 33.083-1.694 21.279 22.198-18.68 16.524c-3.814 3.37-4.165 9.198-.802 13.016a9.257 9.257 0 006.917 3.112 9.225 9.225 0 006.113-2.313l25.854-22.886a9.196 9.196 0 003.116-6.527 9.244 9.244 0 00-2.558-6.762l-19.34-20.173 12.527-25.847c.048 0 .1.01.155.01.279 0 .554 0 .837-.03l50.233-4.569a9.227 9.227 0 008.352-10.025c-.465-5.07-4.95-8.799-10.018-8.348z"/></svg>