<svg width="346" height="307" fill="none" xmlns="http://www.w3.org/2000/svg"><path d="M225.872 86.21h-60.16l102.995 103c4.077 4.07 4.077 10.678 0 14.754l-102.76 102.761h60.164a42.483 42.483 0 0030.022-12.435l84.313-84.32c7.391-7.39 7.391-19.381 0-26.772l-84.553-84.553a42.441 42.441 0 00-30.021-12.435" fill="#002F5C"/><path d="M180.323 0h-59.948a42.968 42.968 0 00-30.389 12.586L5.957 96.62c-7.603 7.597-7.603 19.91 0 27.508l83.79 83.796a42.979 42.979 0 0030.389 12.586h59.948L77.017 117.444c-3.904-3.904-3.904-10.233 0-14.138L180.323 0z" fill="#A50014"/></svg>