<svg xmlns="http://www.w3.org/2000/svg" width="126" height="126"><path fill="#a50014" d="M56.572 105.62c.002-3.366-.023-6.731.01-10.096.03-3.307 1.889-5.439 5.144-5.992 2.859-.486 5.664 1.078 6.543 3.72.248.746.405 1.56.409 2.343.03 6.73.044 13.46.005 20.189-.019 3.29-1.944 5.42-5.202 5.94-2.862.457-5.67-1.136-6.501-3.79-.271-.866-.377-1.813-.39-2.725-.046-3.196-.018-6.393-.018-9.59zm48.418-48.486c3.28-.002 6.562-.02 9.842.002 4.555.03 7.147 3.283 6.164 7.7-.589 2.644-2.747 4.384-5.702 4.403-6.771.044-13.543.05-20.315.001-3.408-.024-5.518-1.939-6.018-5.252-.428-2.829 1.117-5.557 3.721-6.422a8.3 8.3 0 012.466-.413c3.28-.046 6.56-.019 9.842-.019zm-94.567 12.12c-4.536-.024-7.133-3.295-6.148-7.716.58-2.598 2.668-4.344 5.588-4.372a1003.88 1003.88 0 0120.693.001c3.523.04 5.872 2.633 5.813 6.126-.06 3.49-2.442 5.894-6.01 5.95-3.407.055-6.814.012-10.22.012-3.24.001-6.478.015-9.716-.002zM68.694 30.54c-.02 4.577-3.382 7.203-7.829 6.132-2.558-.616-4.251-2.774-4.269-5.683-.042-6.813-.06-13.628.006-20.44.034-3.629 2.554-5.98 6.123-5.939 3.482.04 5.9 2.424 5.958 5.994.057 3.406.013 6.814.013 10.22.001 3.239.012 6.478-.002 9.716zm4.041 83.517c.003-6.142.027-12.284-.011-18.426-.008-1.16-.262-2.318-.422-3.647 9.21-3.394 15.673-9.803 19.071-19.014 7.354.664 14.617.18 21.866.322.958.019 1.916.003 2.893.003-3.85 21.891-21.29 39.49-43.397 43.399v-2.637zM9.127 73.294zm0 0zm0 0h11.444c2.818.002 5.637.045 8.454-.007 1.539-.029 3.075-.215 4.836-.347 3.377 9.099 9.767 15.576 18.979 18.987-.638 7.831-.154 15.595-.31 23.346-.009.458-.001.916-.001 1.388C31.852 113.194 13.3 96.48 9.127 73.294zM72.398 34.44c.126-1.862.32-3.482.33-5.104.034-6.14.01-12.282.007-18.423V9.777c20.161 3.093 39.433 20.111 43.36 43.258-8.176.264-16.366-.27-24.728.334-3.357-9.081-9.788-15.522-18.969-18.93zm-19.495-.007c-9.207 3.417-15.618 9.832-19.022 19.004-6.822-.696-13.544-.192-20.251-.341-1.469-.033-2.938-.005-4.42-.005C12.2 33.84 28.19 14.078 52.535 9.69v1.48c-.003 6.23-.027 12.458.009 18.686.008 1.456.223 2.91.36 4.576zm35.03 21.608c-4.509 4.625-3.892 10.407.028 14.31-2.95 9.1-8.928 15.204-18.188 18.15-1.786-1.737-4.13-3.087-7.093-3.093-2.964-.006-5.335 1.279-7.18 3.115-9.158-2.96-15.25-8.957-18.153-18.156 4.539-4.729 3.828-10.487-.03-14.315 2.924-9.13 8.92-15.217 18.183-18.164 1.791 1.739 4.128 3.09 7.097 3.09 2.964 0 5.335-1.272 7.175-3.1 9.145 2.938 15.213 8.924 18.161 18.163zM-.001 61.848c.01 4.231 1.226 6.87 3.624 8.906.72.612 1.176 1.231 1.224 2.21.037.744.293 1.478.442 2.218 4.712 23.378 24.318 42.087 48.04 45.88.518.082 1.09.45 1.443.855 4.6 5.27 11.107 5.273 15.72.005.354-.404.925-.768 1.444-.852 8.252-1.336 15.895-4.275 22.8-8.955 14.14-9.58 22.817-22.762 25.777-39.645.09-.518.464-1.08.87-1.434 5.255-4.592 5.237-11.1-.047-15.719-.38-.33-.746-.85-.82-1.33-.787-5.05-2.17-9.935-4.365-14.54-8.961-18.793-23.618-30.258-44.145-34.12-.526-.098-1.115-.412-1.466-.81-4.715-5.343-11.1-5.347-15.803-.003-.33.376-.856.725-1.338.803-12.29 2.016-22.855 7.44-31.727 16.128-8.945 8.76-14.53 19.35-16.76 31.67-.21 1.163-.644 1.96-1.514 2.733C1.232 57.772.03 60.21 0 61.848z"/><path fill="#a50014" d="M8.083 40.91H4.036v-7.73c.002-3.87-.001-7.741.01-11.612.022-7.941 6.294-15.476 14.167-16.653 3.01-.45 6.118-.279 9.183-.31 4.284-.043 8.568-.01 12.936-.01v4.053H33.26c-3.829-.002-7.657-.004-11.486-.008-8.257-.009-13.695 5.41-13.692 13.641.002 5.764 0 11.528 0 17.292l.001 1.336zm76.834 80.88v-4.05h1.593c5.89.002 11.78.041 17.67-.004 6.31-.05 11.247-3.95 12.601-9.936.267-1.178.381-2.413.389-3.622.038-6.184.017-12.367.017-18.658h4.045v1.303c-.002 6.142.02 12.285-.013 18.427-.046 8.439-8.041 16.472-16.459 16.526-6.184.04-12.369.012-18.554.014h-1.289zm36.308-80.881h-4.042c0-3.539.023-7.02-.007-10.5-.03-3.53.147-7.089-.231-10.585-.715-6.596-5.966-11.108-12.649-11.164-5.974-.05-11.95-.016-17.924-.019h-1.44V4.677c.316-.023.674-.07 1.032-.07 6.143-.005 12.286-.024 18.43 0 8.861.036 16.793 7.944 16.833 16.793.028 6.143 0 12.286-.002 18.429v1.08zM4.044 85.478h4.045v4.197c0 4.923-.016 9.846.004 14.768.032 7.797 5.452 13.244 13.266 13.295 5.848.04 11.697.008 17.546.009h1.432v4.037h-1.16c-6.06.003-12.118.017-18.177.005-9.008-.016-16.916-7.907-16.952-16.93-.024-6.1-.004-12.201-.004-18.302v-1.079z"/></svg>