<svg xmlns="http://www.w3.org/2000/svg" width="146" height="188"><path fill="#efefef" d="M105.612.372H.113V188h145.165V39.873z"/><path fill="#f1f3f7" d="M105.612 39.873h39.666L105.612.372z"/><path fill="#6eb1e1" d="M22.496 53.204h18.598v18.599H22.496zm23.865-5.267H17.23V77.07h29.13z"/><path fill="#fff" d="M58.376 57.154v-6.912h69.785v6.912zm0 17.611v-6.913h51.186v6.913z"/><path fill="#6eb1e1" d="M22.496 101.099h18.598v18.598H22.496zm23.865-5.267H17.23v29.132h29.13z"/><path fill="#fff" d="M58.376 105.049v-6.913h69.785v6.913zm0 17.611v-6.913h51.186v6.912z"/><path fill="#6eb1e1" d="M22.496 148.993h18.598v18.598H22.496zm23.865-5.266H17.23v29.131h29.13z"/><path fill="#fff" d="M58.376 152.779v-6.913h69.785v6.913zm0 17.611v-6.913h51.186v6.912z"/><path fill="#f0582f" d="M23.649 58.142l8.558 12.015L50.97 48.925 32.043 65.22z"/></svg>