<svg xmlns="http://www.w3.org/2000/svg" width="94" height="114"><path fill="#fff" d="M38.751 40.961c.197-7.182 6.427-12.98 13.75-12.796 7.322.183 13.184 6.344 13 13.662-.186 7.403-6.288 13.324-13.534 13.133-7.69-.202-13.428-6.28-13.216-13.999zm-7.385 39.257c0-2.486-.244-4.993.045-7.437.939-7.959 7.05-13.282 15.06-13.325 3.785-.02 7.569-.024 11.352.001 8.67.057 15.075 6.462 15.14 15.122.013 1.862.001 3.725.001 5.64zm50.183 33.09c1.755-.61 3.655-.969 5.24-1.877 4.857-2.783 7.065-7.17 7.065-12.72V33.09c0-6.139.026-12.278-.007-18.418C93.81 7.701 89.585 2.278 82.972.723 81.876.465 80.72.368 79.59.367 59.517.346 39.445.339 19.373.357 11.282.366 5.26 6.423 5.213 14.528c-.012 2.166-.001 4.333-.001 6.625.436.023.822.055 1.208.06 2.425.029 4.856-.045 7.274.098 4.006.235 7.145 3.69 7.152 7.708.007 4.055-3.18 7.519-7.248 7.736-2.346.125-4.703.056-7.055.074-.397.003-.794 0-1.26 0v12.196c2.363 0 4.706.004 7.05-.002 1.56-.003 3.06.209 4.458.987a7.846 7.846 0 013.852 8.522c-.712 3.299-3.592 5.845-7.002 6.022-2.383.124-4.776.063-7.165.083-.394.003-.787 0-1.222 0v12.196c.411 0 .8-.003 1.19 0 2.425.02 4.855-.046 7.275.082 3.951.21 7.145 3.743 7.127 7.738-.017 3.973-3.153 7.464-7.051 7.692-2.382.14-4.775.076-7.164.101-.434.005-.868 0-1.443 0 .231 4.297-.657 8.573 1.221 12.586 2.092 4.47 5.572 7.188 10.451 8.077.17.031.326.132.49.2h64.199z"/><path fill="#fff" d="M8.694 24.67c1.43 0 2.865-.053 4.293.012 2.266.103 3.908 1.5 4.307 3.56.358 1.849-.626 3.874-2.372 4.65-.651.29-1.41.457-2.125.471-2.751.053-5.506.06-8.258.01C2.361 33.332.744 32.13.192 30.288c-.52-1.735.024-3.717 1.563-4.678.855-.535 1.957-.792 2.979-.91 1.303-.152 2.638-.037 3.96-.037zm-.022 64.288c-1.541 0-3.09.1-4.621-.023-2.278-.182-3.795-1.752-4.028-3.953-.198-1.864.991-3.76 2.816-4.388a5.568 5.568 0 011.722-.305 342.23 342.23 0 018.258-.004c1.926.025 3.413.858 4.185 2.678.693 1.633.401 3.167-.732 4.521-.913 1.093-2.15 1.489-3.526 1.508-1.358.02-2.716.005-4.074.005zm-.004-27.793c-1.505 0-3.015.084-4.513-.02-2.179-.151-3.699-1.543-4.064-3.537-.35-1.911.59-3.865 2.35-4.647a5.63 5.63 0 012.124-.47c2.752-.053 5.506-.048 8.259-.012 1.925.025 3.412.863 4.182 2.682.691 1.633.398 3.167-.737 4.522-.914 1.092-2.153 1.484-3.527 1.504-1.358.02-2.716.004-4.074.004z"/></svg>