<svg xmlns="http://www.w3.org/2000/svg" width="2160" height="975"><g clip-path="url(#clip-eb7cc4fd-0a1f-4ad4-a14a-52d607d27e69)" opacity=".1"><path fill="#9c9d9e" d="M-734.832 968.964l405.314-409.311c20.576-20.78 30.916-47.973 31.022-75.202-.106-27.23-10.446-54.423-31.022-75.201L-734.832-.062H54.325l260.372 262.933h.87l83.095 83.912c37.62 38.006 56.374 87.855 56.264 137.668.11 49.812-18.644 99.662-56.264 137.668l-83.095 83.911h-.869L54.325 968.964z"/><path fill="none" stroke="#000" stroke-miterlimit="50" d="M-734.832 968.964v0l405.314-409.311c20.576-20.78 30.916-47.973 31.022-75.202-.106-27.23-10.446-54.423-31.022-75.201L-734.832-.062v0H54.325v0l260.372 262.933v0h.87v0l83.095 83.912c37.62 38.006 56.374 87.855 56.264 137.668.11 49.812-18.644 99.662-56.264 137.668l-83.095 83.911v0h-.869v0L54.325 968.964v0z"/></g><path fill="#707070" fill-opacity=".05" d="M0 975V2h2160v973z"/><text dominant-baseline="text-before-edge" style="line-height:80px;font-kerning:normal" fill="#002f5c" font-family="'Geometria','Geometria-Bold'" font-size="80" font-style="none" font-weight="700" transform="translate(401 69)"><tspan>Основные це</tspan><tspan>ли и задачи </tspan><tspan>проекта</tspan></text><text dominant-baseline="text-before-edge" style="line-height:45px;font-kerning:normal" fill="#001326" font-family="'Geometria','Geometria'" font-size="40" font-style="none" font-weight="400" transform="translate(400 604)"><tspan>Предотвращение </tspan><tspan>ухудшения </tspan><tspan>состояния пациентов</tspan><tspan></tspan><tspan>и формирование </tspan><tspan>приверженности </tspan><tspan></tspan><tspan>к лечению</tspan></text><text dominant-baseline="text-before-edge" style="line-height:45px;font-kerning:normal" fill="#001326" font-family="'Geometria','Geometria'" font-size="40" font-style="none" font-weight="400" transform="translate(861 604)"><tspan>Повышение </tspan><tspan>культуры </tspan><tspan>информационного </tspan><tspan>социума </tspan><tspan>онкологического </tspan><tspan>пациента</tspan></text><text dominant-baseline="text-before-edge" style="line-height:45px;font-kerning:normal" fill="#001326" font-family="'Geometria','Geometria'" font-size="40" font-style="none" font-weight="400" transform="translate(1311 604)"><tspan>Формирование </tspan><tspan>диапазона знаний и </tspan><tspan>умений пациента </tspan><tspan> </tspan><tspan>для увеличения </tspan><tspan>эффективности </tspan><tspan>проводимого лечения</tspan></text><path fill="#fff" d="M615.801 539.377c66.717 0 120.801-54.084 120.801-120.8 0-66.715-54.084-120.8-120.8-120.8-66.717 0-120.802 54.085-120.802 120.8 0 66.716 54.085 120.8 120.801 120.8"/><path fill="none" stroke="#ebecec" stroke-miterlimit="50" stroke-width="3" d="M615.801 539.377c66.717 0 120.801-54.084 120.801-120.8 0-66.715-54.084-120.8-120.8-120.8-66.717 0-120.802 54.085-120.802 120.8 0 66.716 54.085 120.8 120.801 120.8z"/><path fill="#c6271d" d="M615.801 514.073c52.741 0 95.497-42.755 95.497-95.496 0-52.74-42.756-95.496-95.497-95.496-52.74 0-95.496 42.756-95.496 95.496 0 52.74 42.756 95.496 95.496 95.496"/><text dominant-baseline="text-before-edge" style="font-kerning:normal" fill="#fff" font-family="'Geometria','Geometria-Heavy'" font-size="176" transform="translate(572 314)"><tspan>1</tspan></text><path fill="#fff" d="M1079.801 559.617c66.716 0 120.801-54.085 120.801-120.8s-54.085-120.8-120.801-120.8c-66.716 0-120.801 54.085-120.801 120.8s54.085 120.8 120.801 120.8"/><path fill="none" stroke="#ebecec" stroke-miterlimit="50" stroke-width="3" d="M1079.801 559.617c66.716 0 120.801-54.085 120.801-120.8s-54.085-120.8-120.801-120.8c-66.716 0-120.801 54.085-120.801 120.8s54.085 120.8 120.801 120.8z"/><path fill="#c6271d" d="M1079.801 534.313c52.74 0 95.496-42.755 95.496-95.496 0-52.74-42.755-95.496-95.496-95.496-52.74 0-95.496 42.755-95.496 95.496 0 52.74 42.755 95.496 95.496 95.496"/><text dominant-baseline="text-before-edge" style="font-kerning:normal" fill="#fff" font-family="'Geometria','Geometria-Heavy'" font-size="176" transform="translate(1030 331)"><tspan>2</tspan></text><path fill="#fff" d="M1534.801 559.15c66.717 0 120.801-54.085 120.801-120.801 0-66.714-54.084-120.8-120.8-120.8-66.717 0-120.802 54.086-120.802 120.8 0 66.716 54.085 120.8 120.801 120.8"/><path fill="none" stroke="#ebecec" stroke-miterlimit="50" stroke-width="3" d="M1534.801 559.15c66.717 0 120.801-54.085 120.801-120.801 0-66.714-54.084-120.8-120.8-120.8-66.717 0-120.802 54.086-120.802 120.8 0 66.716 54.085 120.8 120.801 120.8z"/><path fill="#c6271d" d="M1534.801 533.845c52.741 0 95.497-42.755 95.497-95.496 0-52.74-42.756-95.496-95.497-95.496-52.74 0-95.496 42.756-95.496 95.496 0 52.741 42.756 95.496 95.496 95.496"/><text dominant-baseline="text-before-edge" style="font-kerning:normal" fill="#fff" font-family="'Geometria','Geometria-Heavy'" font-size="176" transform="translate(1485 336)"><tspan>3</tspan></text></svg>