<svg xmlns="http://www.w3.org/2000/svg" width="138" height="138"><path d="M81.754 118.405l-11.52-39.994 39.998 11.515c-1.647 1.64-3.171 3.145-4.68 4.664-1.7 1.71-1.699 3.014.008 4.724 5.52 5.53 11.043 11.056 16.574 16.574.378.378.833.68 1.128.918l-14.504 14.49c-.13-.122-.483-.435-.816-.768-5.559-5.555-11.113-11.113-16.672-16.668-1.886-1.885-3.106-1.879-5.013.023-1.455 1.451-2.901 2.912-4.503 4.522zM5.45 5.555h127.065v16.003H5.45zM53.258 82.55c-4.894-.001-9.79.055-14.683-.018-6.725-.1-12.075-4.947-13.138-11.786-.943-6.072 3-12.389 9.088-14.383 1.343-.44 2.805-.721 4.214-.724 20.16-.046 40.322-.057 60.484-.017 6.516.013 12.092 4.736 13.165 10.952 1.128 6.539-2.302 12.765-8.383 15.028-.81.301-1.87.342-2.703.106-11.084-3.137-22.146-6.351-33.22-9.522-.76-.218-1.6-.432-2.357-.323-1.582.226-2.435 1.826-1.974 3.506.64 2.33 1.33 4.646 2.06 7.18H53.258zM.001.093V114.62c.787 1.473 2.01 1.953 3.666 1.915 3.815-.09 7.634-.028 11.452-.028 3.772 0 7.545.031 11.317-.014 2.204-.027 3.488-2.08 2.517-3.923-.592-1.126-1.59-1.471-2.81-1.468-6.423.019-12.845.013-19.267.015H5.46v-83.99h127.018v83.982c-2.347 0-4.592.046-6.833-.036-.494-.018-1.064-.396-1.443-.769-3.109-3.052-6.174-6.147-9.265-9.217-1.362-1.353-2.75-2.68-4.203-4.092 2.111-2.105 4.085-4.061 6.045-6.032 2.096-2.107 1.536-4.308-1.298-5.142-1.644-.484-3.29-.96-5.096-1.486.605-.531 1.043-.907 1.472-1.293 5.644-5.075 7.66-13.275 5.028-20.454-2.628-7.17-9.554-12.313-17.062-12.339-20.569-.071-41.139-.1-61.708.001-9.644.048-17.883 8.39-18.17 18.023-.324 10.895 8.084 19.626 18.986 19.663 9.072.03 18.144.02 27.216-.016.918-.003 1.302.234 1.56 1.154 1.954 6.949 3.977 13.878 5.972 20.814.106.367.158.749.256 1.229h-3.082c-6.557-.002-13.114-.015-19.671 0-2.057.004-3.304 1.407-2.96 3.248.257 1.371 1.356 2.137 3.135 2.139 7.545.006 15.09.003 22.636.003h1.518c.11.22.162.295.186.378.637 2.196 1.273 4.393 1.906 6.59.894 3.105 3.025 3.638 5.337 1.33 1.927-1.926 3.849-3.858 5.97-5.984.368.489.6.887.914 1.203 5.52 5.532 11.05 11.054 16.578 16.577 1.974 1.972 3.163 1.982 5.112.035 5.56-5.556 11.14-11.092 16.65-16.696.879-.894 1.442-2.101 2.33-3.433h3.85c2.777-.004 3.627-.847 3.627-3.613.001-36.379-.008-72.758.028-109.136.002-1.656-.451-2.873-1.914-3.665z"/></svg>