<svg xmlns="http://www.w3.org/2000/svg" width="144" height="129"><path d="M87.036 91.028c-10.44 0-18.933-8.493-18.933-18.933s8.493-18.933 18.933-18.933 18.933 8.493 18.933 18.933-8.493 18.933-18.933 18.933zm0-43.434c-13.51 0-24.501 10.991-24.501 24.501 0 13.51 10.99 24.502 24.501 24.502 13.51 0 24.501-10.992 24.501-24.502 0-13.51-10.99-24.501-24.501-24.501z"/><path d="M87.036 59.567a2.784 2.784 0 100 5.569 6.968 6.968 0 016.96 6.96 2.784 2.784 0 105.568 0c0-6.91-5.62-12.529-12.528-12.529zm-69.15-37.755a2.785 2.785 0 00-4.945 2.56l7.495 14.479a2.81 2.81 0 002.514 1.504 2.785 2.785 0 002.468-1.58l4.537-9.446 4.928 9.522a2.787 2.787 0 002.474 1.504h.04a2.787 2.787 0 002.47-1.58l6.953-14.478a2.785 2.785 0 00-5.02-2.41l-4.537 9.447-4.929-9.522a2.802 2.802 0 00-2.513-1.504 2.786 2.786 0 00-2.47 1.58l-4.536 9.446zM35.801 6.387c.733 0 1.451-.298 1.969-.816a2.802 2.802 0 00.815-1.968c0-.732-.296-1.451-.815-1.969A2.804 2.804 0 0035.8.818a2.8 2.8 0 00-1.967.816 2.803 2.803 0 00-.817 1.969c0 .732.298 1.45.817 1.968a2.804 2.804 0 001.967.816z"/><path d="M87.036 102.722c-16.887 0-30.627-13.74-30.627-30.627S70.15 41.47 87.036 41.47s30.627 13.74 30.627 30.626c0 16.887-13.739 30.627-30.627 30.627zm56.24-54.014V11.955c0-6.14-4.996-11.137-11.136-11.137H47.495a2.785 2.785 0 000 5.569h84.645a5.575 5.575 0 015.568 5.568v36.753a5.575 5.575 0 01-5.568 5.568h-13.365c-.08 0-.158.006-.237.012-4.297-7.572-11.243-13.45-19.571-16.365l4.127-8.593 4.93 9.52a2.782 2.782 0 002.471 1.505h.043a2.785 2.785 0 002.468-1.58l6.953-14.478a2.784 2.784 0 10-5.02-2.41l-4.536 9.447-4.929-9.522a2.799 2.799 0 00-2.515-1.503 2.781 2.781 0 00-2.467 1.578l-4.538 9.447-4.928-9.522a2.785 2.785 0 00-4.946 2.56l6.162 11.904a36.357 36.357 0 00-5.205-.376 36.15 36.15 0 00-9.878 1.37l6.231-12.972a2.783 2.783 0 00-1.305-3.715 2.781 2.781 0 00-3.714 1.304l-4.537 9.447-4.93-9.522a2.794 2.794 0 00-2.514-1.503 2.782 2.782 0 00-2.468 1.578l-4.536 9.447-4.93-9.522a2.784 2.784 0 00-4.944 2.56l7.494 14.479a2.804 2.804 0 002.515 1.504 2.785 2.785 0 002.468-1.58l4.537-9.445 4.928 9.52c.083.16.184.305.294.443A36.438 36.438 0 0055.54 54.276H11.86a5.575 5.575 0 01-5.569-5.568V11.955a5.575 5.575 0 015.569-5.568h11.413a2.784 2.784 0 100-5.569H11.86C5.72.818.723 5.815.723 11.955v36.753c0 6.141 4.996 11.137 11.137 11.137h41.117a36.025 36.025 0 00-2.136 12.25c0 19.959 16.236 36.196 36.195 36.196a35.974 35.974 0 0018.026-4.816l22.098 22.098a9.411 9.411 0 006.675 2.76c2.418 0 4.836-.92 6.676-2.76 3.682-3.682 3.682-9.671 0-13.353l-8.682-8.682a2.784 2.784 0 00-3.937 3.937l8.682 8.683a3.878 3.878 0 010 5.478 3.877 3.877 0 01-5.476 0l-21.366-21.367c8.227-6.64 13.5-16.802 13.5-28.174 0-4.298-.755-8.422-2.137-12.25h11.045c6.142 0 11.137-4.997 11.137-11.137z"/><path d="M121.287 96.934a2.804 2.804 0 00-.816 1.968c0 .732.298 1.45.816 1.97.52.517 1.236.815 1.968.815s1.451-.298 1.969-.816a2.794 2.794 0 00.816-1.969 2.79 2.79 0 00-.816-1.968 2.8 2.8 0 00-1.969-.816c-.732 0-1.45.298-1.968.816z"/></svg>