<svg xmlns="http://www.w3.org/2000/svg" width="90" height="125"><path fill="#a50014" d="M4.422 9.558c.313-2.986 2.91-4.789 6.37-4.79 8.575-.006 17.15-.003 25.725-.003 11.892 0 23.785-.005 35.678.004 3.468.003 6.068 1.847 6.351 4.812.234 2.457.048 4.954.048 7.5H4.37c0-2.568-.205-5.07.052-7.523zm74.35 104.657c-.717 4.5-2.575 6.087-7.15 6.099-6.899.017-13.797.004-20.696.004-13.367 0-26.733.014-40.1-.008-4.27-.007-6.511-2.297-6.531-6.554-.012-2.493-.002-4.987-.002-7.48v-2.498h41.302v-4.135H4.39v-78.29h74.32v30.839h4.15c.038-.285.079-.45.079-.614.006-13.54.065-27.08-.013-40.62-.034-5.74-4.96-10.32-10.735-10.32C51.927.644 31.662.635 11.397.64c-.901 0-1.828-.03-2.7.152C3.45 1.891.01 6.252.01 11.754.009 45.712.03 79.669 0 113.627c-.005 6.443 5.67 10.915 10.92 10.881 20.567-.132 41.134-.052 61.7-.067.767 0 1.552-.101 2.295-.285 4.482-1.11 8.187-5.775 7.903-9.94z"/><path fill="#a50014" d="M85.536 83.129c-.078 1.3-.785 2.61-1.392 3.83-1.593 3.205-3.29 6.363-4.986 9.618h-17.77c-1.554 0-3.11-.06-4.658.023-1.014.055-1.606-.39-2.307-1.017-4.635-4.152-6.936-9.592-9.195-15.071-1.839-4.458-3.72-8.9-5.577-13.35-.705-1.688-.664-1.805.713-2.41 1.463-.64 2.847-.31 3.453.896.43.854.75 1.758 1.118 2.64 1.472 3.53 2.938 7.062 4.418 10.589.6 1.43 1.397 1.958 2.574 1.758 1.113-.19 1.745-1.086 1.745-2.55 0-10.283-.007-20.565-.019-30.848-.001-1.482 1.078-2.678 2.429-2.641 1.331.036 2.336 1.162 2.355 2.592.08 5.969.172 11.937.259 17.906.02 1.466.853 2.493 2.083 2.564 1.223.07 2.112-.858 2.263-2.362.133-1.322.882-1.98 2.293-2.015 1.474-.037 2.29.602 2.378 2.007.074 1.182.015 2.372.015 3.604h4.243c.04-.381.095-.735.114-1.09.085-1.626.778-2.32 2.347-2.332 1.594-.012 2.373.757 2.403 2.417.024 1.284.008 2.568.021 3.852.001.113.086.225.15.382h4.035l.112-1.39c.086-1.083 1.046-1.973 2.196-2.038 1.168-.065 2.482.837 2.475 1.899-.027 4.18-.037 8.366-.288 12.537zm-7.166 21.313H56.733v-3.81H78.37zM49.375 58.433c-.005 2.96-.014 5.918-.014 8.877l-.247.086c-.377-.904-.752-1.81-1.131-2.713-1.093-2.605-3.234-4.096-5.932-4.243.075-.024.147-.05.207-.085a57.64 57.64 0 004.288-2.773c.6-.424.99-.379 1.58.018.414.279.832.556 1.249.833zM16.367 70.606c-.56 0-1.122.011-1.682-.012-1.5-.062-2.126-.633-2.128-2.081-.016-9.206-.017-18.413 0-27.62.002-1.624.668-2.141 2.59-2.142 8.758-.003 17.516-.001 26.274-.001v.006c8.8 0 17.602-.005 26.403.003 2.24.002 2.714.49 2.714 2.644 0 6.806.002 13.612.005 20.417-1.971-2.164-4.376-3.217-7.634-2.089-.032-.651-.077-1.18-.082-1.707-.037-3.44-.08-6.882-.092-10.323-.01-3.073-1.734-5.736-4.326-6.61-4.717-1.59-9.107 1.703-9.062 6.7.01 1.026.013 2.053.017 3.08-2.273 1.49-4.545 2.98-6.813 4.476-.758.5-1.264.491-2.011-.008-3.821-2.553-7.684-5.05-11.533-7.563-3.526-2.302-7.053-4.6-10.674-6.962l-2.373 3.33 16.045 10.498-16.021 10.572 2.341 3.29c.428-.26.76-.447 1.076-.655 5.158-3.39 10.325-6.767 15.459-10.192.682-.455 1.14-.476 1.8-.006 1.35.96 2.738 1.879 4.174 2.713a.95.95 0 00.194.08 9.232 9.232 0 00-.556.052c-3.113.398-6.7 4.178-4.9 7.98.336.707.663 1.418.984 2.13H16.367zm73.566-.405c-.1-2.89-2.575-5.077-5.526-5.38-1.285-.132-2.618.165-3.998.272-1.99-2.579-3.484-3.651-5.727-3.563a17577 17577 0 00-.001-20.539c-.002-3.473-2.837-6.217-6.472-6.22-17.776-.01-35.551-.007-53.327.004-3.62.002-6.464 2.74-6.47 6.218-.013 8.958.14 17.92-.077 26.873-.083 3.396 3.063 6.874 7.066 6.786 7.626-.168 15.258-.087 22.889-.065 1.366 3.231 2.667 6.491 4.03 9.724 1.866 4.422 3.689 8.91 7.433 12.227 2.19 1.939 3.07 4.087 2.726 6.896-.202 1.658-.037 3.358-.037 5h30.239c0-2.37-.17-4.66.054-6.914.18-1.814.613-3.675 1.337-5.354 1.066-2.476 2.56-4.778 3.737-7.214.757-1.565 1.698-3.209 1.817-4.866.332-4.615.468-9.262.307-13.885zM43.25 112.547c-.022 1.34-.676 1.977-1.997 1.944-1.303-.033-1.875-.685-1.833-2.09.04-1.315.726-1.942 2.055-1.878 1.254.061 1.797.68 1.775 2.024zm-7.947-.112c-.06 2.987 2.932 6.018 5.963 6.04 3.05.022 6.035-2.865 6.1-5.901.063-2.98-2.933-6.015-5.964-6.04-3.048-.026-6.038 2.866-6.1 5.901zM51.28 8.68H31.398v3.829H51.28z"/></svg>