<svg width="41" height="55" fill="none" xmlns="http://www.w3.org/2000/svg"><g clip-path="url(#clip0)"><path d="M41 21.5c0 8.064-10.402 23.404-16.387 31.562-2.038 2.778-6.188 2.778-8.226 0C10.402 44.904 0 29.564 0 21.5 0 10.177 9.178 1 20.5 1S41 10.177 41 21.5z" fill="#53000A"/><path d="M41 21.5c0 8.064-10.402 23.404-16.387 31.562-2.038 2.778-6.188 2.778-8.226 0C10.402 44.904 0 29.564 0 21.5 0 10.177 9.178 1 20.5 1S41 10.177 41 21.5z" fill="url(#paint0_linear)"/><circle cx="20.5" cy="21.5" r="15.5" fill="#fff"/><g clip-path="url(#clip1)"><path d="M24.015 16.897h-4l6.847 7.046a.728.728 0 010 1.009l-6.83 7.03h3.998a2.789 2.789 0 001.996-.851l5.605-5.768a1.322 1.322 0 000-1.831l-5.62-5.784a2.816 2.816 0 00-.916-.63 2.75 2.75 0 00-1.08-.22z" fill="#002F5C"/><path d="M20.988 11h-3.985c-.375 0-.746.076-1.093.224a2.854 2.854 0 00-.927.637l-5.586 5.748a1.357 1.357 0 000 1.882l5.57 5.732c.536.551 1.263.86 2.02.86h3.985l-6.85-7.05a.698.698 0 010-.966L20.987 11z" fill="#A50014"/></g></g><defs><clipPath id="clip0"><path fill="#fff" d="M0 0h41v55H0z"/></clipPath><clipPath id="clip1"><path fill="#fff" transform="translate(9 11)" d="M0 0h23v21H0z"/></clipPath><linearGradient id="paint0_linear" x1="20.5" y1="1" x2="20.5" y2="55.145" gradientUnits="userSpaceOnUse"><stop stop-color="#E5122C"/><stop offset="1" stop-color="#53000A" stop-opacity="0"/></linearGradient></defs></svg>