<svg width="1920" height="1209" fill="none" xmlns="http://www.w3.org/2000/svg"><path fill="#fff" d="M0 0h1920v1208.83H0z"/><g clip-path="url(#clip0)"><path d="M847.933 495.391h-30.11l-54.681 55.371v-55.37h-23.553v136.892h23.553v-63.469l57.217 63.469h31.267l-69.136-73.218 65.443-63.675zm87.709-.003l51.823 136.892h-25.3l-12.347-33.853h-51.183L886.29 632.28h-25.3l51.822-136.892h22.83zm-11.418 29.716l-18.586 52.578h37.184l-18.598-52.578zm76.926 107.18h23.56V516.142h59.85v116.142h23.56V495.39h-106.97v136.894zm154.68-38.526V495.39h-23.56v136.893h22.18l65.17-99.052v99.052h23.56V495.39H1221l-65.17 98.368zm211.88-98.367h-108.65v20.756h42.64v116.137h23.55V516.147h42.46v-20.756zm54.71-.003l51.83 136.892h-25.31l-12.35-33.853h-51.17l-12.35 33.853h-25.3l51.82-136.892h22.83zM1411 525.104l-18.59 52.578h37.19l-18.6-52.578zm103.28-29.711v59.281c0 25.89-4.03 56.75-23.24 56.75-1.3 0-2.67-.133-4.09-.394l-3.53-.662v21.467l2.5.412c2.99.49 5.89.74 8.64.74 28.72 0 43.27-25.089 43.27-74.57V516.15h40.97v116.136h23.56V495.393h-88.08zM759.03 695.796l-13.642-30.25h-5.818v45.434h6.385v-29l10.406 23.064h5.267l10.155-22.936v28.87h6.39v-45.432h-5.834l-13.309 30.25zm26.038 15.184h28.775v-6.04h-22.39v-13.832h19.07v-6.04h-19.07v-13.476h22.39v-6.045h-28.775v45.433zm69.904-6.038h5.032v16.718h-6.384v-10.678h-27.135v10.678H820.1v-16.718h4.556c3.358-5.684 4.744-12.258 4.744-22.374V665.55h25.572v39.392zm-19.36-19.52c0 7.651-1.29 14.203-3.843 19.52h16.818v-33.347h-12.975v13.826m37.148 13.093V665.55h-6.39v45.433h5.679l20.739-33.07v33.07h6.379V665.55h-5.668l-20.739 32.964zm65.186-32.965h-6.385v39.392h-18.78v-39.392h-6.386v45.431h30.206v10.679h6.378v-16.718h-5.033v-39.392zm17.131 32.965V665.55h-6.385v45.433h5.673l20.745-33.07v33.07h6.379V665.55h-5.668l-20.744 32.964zm58.473-13.447h-18.777v-19.522h-6.39v45.433h6.39v-19.872h18.777v19.872h6.39v-45.433h-6.39v19.522zm30.63-13.833c4.87 0 8.43 3.07 9.52 8.225l.27 1.263h6.47l-.35-1.891c-1.59-8.41-7.68-13.637-15.91-13.637-4.43 0-8.47 1.596-11.37 4.5-4.48 4.499-4.67 8.686-4.67 18.57 0 9.882.19 14.07 4.67 18.569 2.9 2.903 6.94 4.505 11.37 4.505 8.23 0 14.32-5.228 15.91-13.642l.35-1.891h-6.35l-.27 1.262c-1.1 5.15-4.7 8.231-9.64 8.231-2.7 0-5.01-.94-6.86-2.797-2.58-2.575-2.79-5.595-2.79-14.238s.21-11.651 2.79-14.237c1.85-1.852 4.16-2.792 6.86-2.792m56.61-5.685h-8.77l-17.39 17.958v-17.958h-6.39v45.431h6.39v-19.687l18.74 19.687h8.99l-23.18-23.652 21.61-21.779z" fill="#A50014"/><path d="M1116.99 665.194c4.43 0 8.47 1.596 11.37 4.5 4.31 4.32 4.67 8.08 4.67 18.57 0 10.494-.36 14.248-4.67 18.569-2.9 2.903-6.94 4.505-11.37 4.505-4.44 0-8.47-1.602-11.38-4.505-4.31-4.316-4.67-8.075-4.67-18.57 0-10.494.36-14.249 4.67-18.57 2.91-2.903 6.95-4.5 11.38-4.5v.001zm0 6.039c-2.71 0-5.02.94-6.88 2.798-2.56 2.575-2.78 5.59-2.78 14.232 0 8.648.22 11.663 2.78 14.238 1.86 1.852 4.17 2.797 6.88 2.797 2.7 0 5.01-.945 6.87-2.802 2.57-2.57 2.78-5.585 2.78-14.233 0-8.643-.21-11.657-2.79-14.237-1.85-1.852-4.16-2.792-6.86-2.792m21.27 39.746h28.78v-6.04h-22.39v-13.832h19.07v-6.04h-19.07v-13.476h22.39v-6.045h-28.78v45.433zm76.12-39.746c4.86 0 8.42 3.07 9.51 8.225l.27 1.263h6.46l-.35-1.891c-1.57-8.41-7.66-13.637-15.89-13.637-4.44 0-8.47 1.596-11.38 4.5-4.31 4.32-4.67 8.08-4.67 18.57 0 10.488.36 14.248 4.67 18.569 2.9 2.903 6.94 4.505 11.38 4.505 8.23 0 14.32-5.228 15.89-13.648l.35-1.885h-6.34l-.27 1.262c-1.09 5.15-4.69 8.231-9.63 8.231-2.71 0-5.02-.945-6.88-2.797-2.56-2.575-2.78-5.59-2.78-14.238 0-8.643.22-11.657 2.78-14.237 1.86-1.852 4.17-2.792 6.88-2.792m19.66.359h12.56v39.387h6.38v-39.387h12.62v-6.044h-31.56v6.044zm54.81-6.043c8.56 0 14.32 5.528 14.32 13.759 0 8.23-5.76 13.759-14.32 13.759h-10.67v17.914h-6.39V665.55h17.06zm-10.67 21.478h10.3c3.79 0 8.3-1.34 8.3-7.72 0-6.379-4.51-7.713-8.3-7.713h-10.3v15.433zm118.15-21.834c4.43 0 8.47 1.596 11.37 4.5 4.31 4.32 4.67 8.08 4.67 18.57 0 10.494-.36 14.248-4.67 18.569-2.9 2.903-6.93 4.505-11.37 4.505-4.43 0-8.47-1.602-11.37-4.505-4.31-4.321-4.68-8.075-4.68-18.57 0-10.489.37-14.249 4.68-18.57 2.9-2.903 6.94-4.5 11.37-4.5v.001zm0 6.039c-2.7 0-5.01.94-6.87 2.798-2.56 2.575-2.79 5.59-2.79 14.232 0 8.648.23 11.663 2.79 14.238 1.86 1.852 4.16 2.797 6.87 2.797s5.01-.945 6.87-2.802c2.57-2.57 2.78-5.585 2.78-14.233 0-8.643-.21-11.657-2.78-14.237-1.85-1.852-4.17-2.792-6.87-2.792m48.66 16.395c.48.311.93.662 1.42 1.1 2.53 2.331 3.86 5.524 3.86 9.266 0 8.01-5.36 12.987-13.98 12.987h-17.58V665.55h17.12c8.11 0 13.78 5.144 13.78 12.507 0 3.493-1.27 6.54-3.69 8.821-.33.289-.63.528-.93.75v.001zm-9.52-2.859c2.9 0 7.76-.856 7.76-6.585 0-5.734-4.86-6.596-7.76-6.596h-10.37v13.181h10.37zm.47 20.166c4.97 0 7.93-2.641 7.93-7.063 0-4.421-2.96-7.063-7.93-7.063h-10.84v14.126h10.84zm39.71-39.386l16.69 45.432h-6.85l-3.68-10.261h-17.41l-3.67 10.261h-6.84l16.68-45.432h5.08zm4.02 29.13l-6.56-18.497-6.56 18.498 13.12-.001zm42.88-9.613h-18.79v-19.522h-6.38v45.433h6.38v-19.872h18.79v19.872h6.39v-45.433h-6.39v19.522zm19.33 13.447V665.55h-6.38v45.433h5.67l20.74-33.07v33.07h6.39V665.55h-5.67l-20.75 32.964zm61.2-26.921v-6.044h-28.78v45.431h28.78v-6.039h-22.38v-13.837h19.07v-6.04h-19.07v-13.47l22.38-.001zm-271.88 39.533l-3.21-9.176h-18.04l-3.21 9.176h-7.3l16.74-45.693h5.59l16.67 45.693h-7.24zm-12.07-35.36l-7.19 20.278h14.19l-7-20.278zm51.25 35.359l-9.95-17.52-9.95 17.52h-7.89l14.05-23.425-13.15-22.269h7.95l8.99 16.368 9.05-16.368h7.96l-13.22 22.269 14.18 23.425h-8.02z" fill="#A50014"/><path d="M541.872 536.21h-60.16l102.995 103c4.077 4.07 4.077 10.678 0 14.754l-102.76 102.761h60.164a42.483 42.483 0 0030.022-12.435l84.313-84.32c7.391-7.39 7.391-19.381 0-26.772l-84.553-84.553a42.449 42.449 0 00-30.021-12.435" fill="#002F5C"/><path d="M496.323 450h-59.948a42.986 42.986 0 00-30.389 12.586l-84.029 84.034c-7.603 7.597-7.603 19.91 0 27.508l83.79 83.796a42.979 42.979 0 0030.389 12.586h59.948L393.017 567.444c-3.904-3.904-3.904-10.233 0-14.138L496.323 450z" fill="#A50014"/></g><defs><clipPath id="clip0"><path fill="#fff" transform="translate(316 450)" d="M0 0h1287v307H0z"/></clipPath></defs></svg>