<svg xmlns="http://www.w3.org/2000/svg" width="148" height="134"><path fill="#e8e8e8" d="M55.933 91.098c10.894-15.527 16.342-31.775 16.342-48.72 0-14.12-3.235-24.304-9.685-30.564C56.131 5.562 48.87 1.828 40.802.617 39.592.22 38.476.01 37.474.01h-3.329C23.648.01 15.78 2.734 10.541 8.181 5.293 13.628 2.067 19.586.858 26.036.45 26.85.252 27.757.252 28.76v2.725c0 10.497 3.12 18.564 9.38 24.208 6.252 5.655 14.423 8.682 24.513 9.08h1.211c.397 0 1.002-.2 1.815-.606h2.421l1.21 1.816c-1.21 5.248-4.236 12.406-9.079 21.485-4.84 9.08-15.338 20.276-31.47 33.59l12.103 12.71a719.32 719.32 0 003.633-2.421c1.21-.804 2.42-1.608 3.631-2.42 13.314-9.684 25.42-22.29 36.313-37.828m75.241-.001c10.893-15.527 16.341-31.775 16.341-48.72 0-14.12-3.235-24.304-9.684-30.564-6.46-6.252-13.722-9.986-21.788-11.197-1.211-.397-2.327-.606-3.329-.606h-3.328C98.888.011 91.02 2.735 85.78 8.182c-5.248 5.446-8.473 11.404-9.683 17.854-.407.814-.605 1.721-.605 2.723v2.725c0 10.497 3.12 18.564 9.38 24.208 6.252 5.655 14.422 8.682 24.513 9.08h1.21c.397 0 1.003-.2 1.815-.606h2.422l1.21 1.816c-1.21 5.248-4.236 12.406-9.078 21.485-4.841 9.08-15.338 20.276-31.471 33.59l12.105 12.71c1.21-.803 2.42-1.607 3.631-2.421 1.21-.804 2.42-1.608 3.631-2.42 13.315-9.684 25.42-22.29 36.314-37.828"/></svg>