<svg xmlns="http://www.w3.org/2000/svg" width="114" height="150"><path fill="none" stroke="#a50014" stroke-linecap="round" stroke-miterlimit="50" stroke-width="8" d="M23.824 76.195C7.506 52.311.524 4.475 57.72 4.43c47.801-.038 75.088 38.69-25.074 139.822-1.916 1.934-5.25 1.478-6.453-.966-4.351-8.856-11.361-15.96-20.182-20.438-2.298-1.167-2.603-4.337-.717-6.091 49.018-45.542 63.944-68.222 68.36-78.59 1.769-4.152-.297-8.997-4.578-10.434a37.802 37.802 0 00-24.898.3c-3.567 1.292-5.697 4.947-5.112 8.694.737 4.739 3.064 9.46 9.61 17.332m42.95 46.644l16.346 15.587c2.074 1.977 1.307 5.32-1.34 6.42-8.568 3.56-15.546 10.82-18.78 19.512-1.032 2.774-4.476 3.655-6.512 1.51l-12.875-13.589"/></svg>