<svg xmlns="http://www.w3.org/2000/svg" width="1421" height="2394"><g clip-path="url(#clip-5fea56fe-5e7a-4025-aebe-584cb5c8a043)" opacity=".1"><path fill="#9c9d9e" d="M.358 2393.825l973.51-1010.935c49.42-51.32 74.258-118.484 74.511-185.736-.253-67.253-25.09-134.416-74.511-185.736L.358.483h1895.45l625.38 649.402h2.09l199.583 207.25c90.357 93.868 135.402 216.99 135.138 340.019.264 123.03-44.781 246.15-135.138 340.018l-199.584 207.25h-2.087l-625.382 649.403z"/><path fill="none" stroke="#000" stroke-miterlimit="50" d="M.358 2393.825v0l973.51-1010.935c49.42-51.32 74.258-118.484 74.511-185.736-.253-67.253-25.09-134.416-74.511-185.736L.358.483v0h1895.45v0l625.38 649.402v0h2.09v0l199.583 207.25c90.357 93.868 135.402 216.99 135.138 340.019.264 123.03-44.781 246.15-135.138 340.018l-199.584 207.25v0h-2.087v0l-625.382 649.403v0z"/></g></svg>