<svg xmlns="http://www.w3.org/2000/svg" width="889" height="717"><g opacity=".1"><path fill="#9c9d9e" d="M.162 716.825l302.744-302.783c15.369-15.371 23.093-35.487 23.171-55.63-.078-20.143-7.802-40.259-23.171-55.63L.162 0h589.45l194.482 194.5h.65l62.067 62.074c28.099 28.114 42.107 64.99 42.025 101.838.082 36.848-13.926 73.724-42.025 101.838l-62.067 62.073h-.65L589.613 716.825z"/><path fill="none" stroke="#000" stroke-miterlimit="50" d="M.162 716.825v0l302.744-302.783c15.369-15.371 23.093-35.487 23.171-55.63-.078-20.143-7.802-40.259-23.171-55.63L.162 0v0h589.45v0l194.482 194.5v0h.65v0l62.067 62.074c28.099 28.114 42.107 64.99 42.025 101.838.082 36.848-13.926 73.724-42.025 101.838l-62.067 62.073v0h-.65v0L589.613 716.825v0z"/></g></svg>